<svg xmlns="http://www.w3.org/2000/svg"  viewBox="0 0 48 48" width="96px" height="96px"><path fill="#3dd9eb" d="M40,39H8V9c0-2.209,1.791-4,4-4h28V39z"/><rect width="18" height="9" x="15" y="15" fill="#7debf5"/><path fill="#3dd9eb" d="M8,9v30h4V5C9.791,5,8,6.791,8,9z"/><path fill="#7debf5" d="M40,43H11.5C9.567,43,8,41.433,8,39.5l0,0c0-1.933,1.567-3.5,3.5-3.5H40V43z"/><path fill="#00b3d7" d="M8.05,39H40v-3H11.5C9.738,36,8.295,37.306,8.05,39z"/><g><polygon fill="#eb0000" points="23,2 23,28 29.5,25 36,28 36,2"/><rect width="13" height="3" x="23" y="2" fill="#f55376"/></g></svg>